<svg xmlns="http://www.w3.org/2000/svg" viewBox="0 0 146.66 193"><defs><style>.cls-1{fill:#fff;}</style></defs><g id="Capa_2" data-name="Capa 2"><g id="Capa_1-2" data-name="Capa 1"><path class="cls-1" d="M146.57,55.68c0-.4.09-.81.05-1.2-.09-.82,0-1.83-.43-2.4a13.93,13.93,0,0,0-3.59-3.63c-3.4-2-7-3.74-10.52-5.49-3.18-1.55-6.43-3-9.91-4.56a28.55,28.55,0,0,0,1.51,4.3A24.69,24.69,0,0,0,126.13,46c-1.72,1.34-3.61,2.65-5.33,4.17-4.35,3.82-9.47,5-14.94,4.68C99.12,61.13,87.82,72.5,81,84.26c-10.14,17.57-9.68,41.14-9.68,41.14s-1.83-20.57,2-41.14c2-10.87,11.53-25.58,20-37l-.06-.1a33.88,33.88,0,0,1-4-14.07c-.33-3.71-.47-7.43-.57-11.16l-.09-4a21.79,21.79,0,0,0-.49-4.26A17.17,17.17,0,0,0,83,4.48C78.44.29,73.34-1.6,67.65,1.63c-5.31,3-8.71,7.48-9.35,13.6-.44,4.3-.3,8.66-.49,13a47.65,47.65,0,0,1-3.1,16.1c-1.62,4-4,7.32-8.09,9.17a18.09,18.09,0,0,1-7.94,1.41A20.2,20.2,0,0,1,25.59,50c-1.66-1.41-3.43-2.69-5.13-4,2.44-2.24,3.9-5.13,3.75-7.4-3.49,1.61-7.08,3.18-10.59,4.9C10.42,45,7.2,46.56,4.17,48.4c-2.5,1.52-4.81,3.43-4,7a.82.82,0,0,1,0,.22A37.72,37.72,0,0,0,2,70.6,52.48,52.48,0,0,0,5.74,79C8.39,83.69,9.51,88.84,11,93.87s3.15,10.1,6.23,14.5a8.62,8.62,0,0,0,.59.75c0-1.67-.06-3.32,0-5s.27-3.27.41-4.91h.35c.14.36.29.73.41,1.1a98.73,98.73,0,0,0,10.38,22,26.14,26.14,0,0,0,5.1,6.36C28.63,112.09,23.91,92.15,24.84,88c2.72,9.14,6.1,17.91,11.19,26-3.35-14.34-5.69-28.78-5-43.57.69,3.73,1.42,7.46,2.07,11.21a295.62,295.62,0,0,0,7.2,32.19,113.67,113.67,0,0,0,9.44,23.78,42.51,42.51,0,0,0,10.08,12.69c5.76,4.7,12.27,6.43,19.58,4.76,1.91-.43,3.78-1,5.79-1.57a9.66,9.66,0,0,1-4.66,4.69c-4.56,2.26-9.24,2-13.92.45C65,158,63.5,157.27,62,156.62c-5.37,8.24,3.41,32.57,12.9,36.38a49.37,49.37,0,0,1-.86-6.88,20.46,20.46,0,0,1,3.39-10.79c3.35-5.35,7-10.53,10.33-15.87,2.48-4,4.29-8.21,4.39-13a14.42,14.42,0,0,0-.94-6c-9.92,8-22.32,6-25.84,2.58l.45,0c2.68,0,5.37.21,8,0a28.65,28.65,0,0,0,15.26-5.71c6.58-4.85,10.85-11.47,14.2-18.76a98.89,98.89,0,0,0,6.58-19.46c1.52-6.72,2.9-13.48,4.29-20.23.58-2.83,1-5.68,1.54-8.53.7,14.84-1.64,29.3-5,43.67a70.16,70.16,0,0,0,6.49-12.6c1.73-4.37,3.25-8.82,4.86-13.24-1,14.09-5,27.49-9.8,40.69,4-4.08,6.84-9,9.42-14a117.5,117.5,0,0,0,6.62-15.64,33.18,33.18,0,0,1,.57,10,24,24,0,0,0,2-3c2.62-4.56,4.12-9.55,5.5-14.58a56.48,56.48,0,0,1,5.09-13.42A39.42,39.42,0,0,0,146.57,55.68ZM84.78,20.15c.58,5.78-2.24,9.78-7.56,9.11A27.33,27.33,0,0,1,84.78,20.15ZM75.49,32.68l.47,0c.19.61.62,1.26.53,1.82-.17,1-.91,1.63-2.27,1.84C74.69,35,75.09,33.82,75.49,32.68Zm-4.8,0h.52c.41,1.16.81,2.33,1.26,3.63-1.28-.15-2-.73-2.2-1.67A5.08,5.08,0,0,1,70.69,32.66ZM61.9,20.13c3.16,2.66,5.88,5.46,7.61,9.2C64,29.84,61.43,25.87,61.9,20.13Zm6.56,31A11.43,11.43,0,0,1,65,46c-.15.65-.31,1.29-.5,2.1a17.27,17.27,0,0,1-2.84-6.76c-.45.75-.79,1.29-1.2,2A18.13,18.13,0,0,1,60.7,32.9c.73,2.57,1.2,4.91,2.91,6.85.14-.83.26-1.5.37-2.16l.27-.15a10.84,10.84,0,0,0,5,6.53V41.52l4.1,5,4.05-4.87v2.15l.32.24a24.76,24.76,0,0,0,2.87-2.83,28.74,28.74,0,0,0,2.08-3.77c.15.79.27,1.45.39,2.08,1-.51,1.19-1,2.9-6.27,1.29,1.83,1.2,7.56.21,10-.3-.52-.59-1-.9-1.51,0-.06-.12-.08-.22-.14-.35,1.12-.63,2.25-1.06,3.31A13.27,13.27,0,0,1,82.22,48c-.17-.66-.34-1.33-.54-2.13-2.07,4.2-2.24,4.45-3.43,5.1V49.45l-3,3.65-.13-1.5-1.82,1.93-1.79-1.91c0,.41-.08.74-.16,1.45l-2.94-3.65Z"/></g></g></svg>