<svg xmlns="http://www.w3.org/2000/svg" viewBox="0 0 185.56 176.5"><defs><style>.cls-1{fill:#fff;}</style></defs><g id="Capa_2" data-name="Capa 2"><g id="Capa_1-2" data-name="Capa 1"><path class="cls-1" d="M148.71,81.52c1.8-6,4.9-11.47,7.72-17a43,43,0,0,1,13.84-16.16c2.51-1.75,5.24-3.18,7.91-4.7a12.3,12.3,0,0,0,5.3-5.81,24.34,24.34,0,0,0,2.08-9.47,11.37,11.37,0,0,0-.16-1.43l-.28,0c-.24.59-.53,1.17-.73,1.78-.39,1.22-.73,2.45-1.1,3.68a11,11,0,0,1-3.11,5.2,19.47,19.47,0,0,1-6.32,3.67,2.42,2.42,0,0,1-3.19-.88,20.6,20.6,0,0,1-3.8-8.54c-.3-1.84-.45-3.7-.74-5.54a4.4,4.4,0,0,0-.7-1.26c-.26.39-.73.76-.75,1.17a25,25,0,0,0-.09,5.33c.47,3.06,1.25,6.07,1.92,9.1a5.42,5.42,0,0,1-1.83,5.72c-1,.81-1.88,1.63-2.76,2.52-1.14,1.16-1.82,1.22-2.9,0a4.05,4.05,0,0,1-.92-1.47c-.8-2.76-1.56-5.54-2.26-8.34a14.33,14.33,0,0,1,.33-7.68c.49-1.61,1-3.23,1.34-4.86.82-3.49,1.76-7,1.52-10.6a27.57,27.57,0,0,0-5.41-14.16A15.68,15.68,0,0,0,151.91,0l-.3.19a16.19,16.19,0,0,0,.54,1.71C152.6,3,153.12,4,153.59,5a20.6,20.6,0,0,1,2,10c-.33,5.08-2,9.87-3.72,14.61-.6,1.65-1.6,2-3.24,1.38a9.45,9.45,0,0,1-1.28-.62,26.53,26.53,0,0,1-9-8.21c-2.15-3.13-4.21-6.32-6.34-9.47-.74-1.09-1.55-2.12-2.34-3.18l-.36.18a4.91,4.91,0,0,0,.12,1c.65,1.85,1.26,3.73,2,5.54,2.38,5.54,6.26,10,10.36,14.32A41.86,41.86,0,0,1,147.41,37c2.9,4.72,4.16,10.1,5.18,15.5a15.73,15.73,0,0,1-1.06,10c-2.52,5.31-5.07,10.61-7.41,16-2,4.66-4.67,8.81-8.78,11.83a57.89,57.89,0,0,0-14,14.94c-.53.8-1.14,1.54-1.81,2.43-.31-3-1.06-5.56-3.41-7.3a6.11,6.11,0,0,1-1.63-7.62,2.67,2.67,0,0,1,4.08-.49,4.05,4.05,0,0,1-.23,5.38c-1.21-.61-1.18-1.93-1.59-3.23-.14.5-.19.75-.28,1a2.69,2.69,0,0,0,1.06,2.89,2.89,2.89,0,0,0,3-1.48c.5-1.8-.37-3.24-1.1-4.77-.91-1.9-2.66-2.33-4.47-.76-2.23,1.94-3.06,6.79-1.48,9.23.19.3.69.68.93.62,1.38-.39,1.89.55,2.31,1.48,1.1,2.42,1.62,4.89.14,7.42a4.44,4.44,0,0,1-.46-1.59,5.46,5.46,0,0,0-1.94-4.38,17.69,17.69,0,0,0-3.74-1.62c.43.23.87.45,1.28.71.77.46,1.52.95,2.26,1.41-.54.73-1,1.28-1.42,1.91l1,.63-.35-.27c.26-.51.53-1,.8-1.53l.43,0,1,3.07c-1.27-.44-1.67-1-1-2.06-.14,0-.28-.11-.42-.15l-.39.9s-7.54,1.31-14.48,9-6.48,25.08-6.48,25.08-4.4-18,2-25.72a39,39,0,0,1,14.86-10.76c.28-.71.59-1.46.88-2.23,0-.51,0-1,.06-1.53.11-1.66.18-3.33.34-5a5,5,0,0,1,.55-1.75c1-1.92,1.7-3.87,1.07-6.09a5.19,5.19,0,0,1,0-1.31c0-1.49-.14-3.12-1.37-4-1-.74-.89-1.43-.64-2.29a13.64,13.64,0,0,1,.8-2.16,4.82,4.82,0,0,1,2.64-2.68,7.59,7.59,0,0,1-.77,2.62,18.1,18.1,0,0,1-1.94,2.33c3.1-.51,3.84-2.93,4.69-5.27A7.18,7.18,0,0,1,121.19,80c.22.58-.12,1.93-.52,2.08a5.87,5.87,0,0,1-2.79,0,2.93,2.93,0,0,1-.1-1.39c0-.27.39-.49.59-.74-1,.18-1.78.59-1.78,1.6,0,2.16,1,3.16,3.15,3.26a11.8,11.8,0,0,0,2-.07,3.64,3.64,0,0,0,3.46-3.36,1.55,1.55,0,0,1,.43-.92,2,2,0,0,0,.4-2.58,8.68,8.68,0,0,0-7.22-5.21c-2.11-.24-3.44-.6-3.51-3.14,0-1.71-1.21-2.37-3-2.42a6.27,6.27,0,0,0-4.43,1.58,6.55,6.55,0,0,1-.59.45c.92-1.73,2.18-2.91,4.25-2.67,1,.12,2,.37,3,.49,2.62.31,5.05,0,6.72-2.4a2.51,2.51,0,0,1,.93-.74,4.91,4.91,0,0,0,2.31-2.81,13,13,0,0,0-.18-9c-1.52-4.36-5.16-7.47-10.38-6.07a1.52,1.52,0,0,1-1-.2A14.86,14.86,0,0,0,107,44,5.84,5.84,0,0,0,101.49,46c-1.11,1.43-2,3-3,4.58a7.32,7.32,0,0,1-.68,1.11c-.48.51-.92.6-1.35-.19a3.44,3.44,0,0,1,2.59-5.3c.38,0,.75-.07,1.12-.11v-.23H97.37c2.12-1.83,4.41-3.68,6.55-5.7,2.93-2.78,4.08-6.61,1.5-10.25a1.22,1.22,0,0,1-.25-.7c.13-2.76-1.75-4.33-3.62-5.77a4.43,4.43,0,0,0-4.47-.65c-1.15.46-2.26,1-3.4,1.52A4.86,4.86,0,0,1,89,24.26c-2.87-1.79-4.4-6.62-3.09-9.75A5,5,0,0,1,93,12.29l.78.51.09-.14c-.24-.28-.47-.57-.71-.86l.26-.27a5.94,5.94,0,0,1,1.25,1.14,18.06,18.06,0,0,1,1.06,2.27c.63,1.39,1.7,1.83,2.75,1.1-1.73-.48-2.7-1.47-2.61-3.38A2.38,2.38,0,0,0,94,10.36a1.64,1.64,0,0,1-1.32-1.1,3.41,3.41,0,0,0-3-2.28,5.51,5.51,0,0,0-5.19,2.25,10.19,10.19,0,0,0-1.71,4,43.07,43.07,0,0,0-.18,6.43A12.75,12.75,0,0,0,89,31.14a3.86,3.86,0,0,0,3.14.43c1.08-.28,2.14-.64,3.21-1a3.84,3.84,0,0,1,.11,3.63,6.33,6.33,0,0,1-4,3.79,45.36,45.36,0,0,1-5.57,1.11,10.16,10.16,0,0,0-7.25,4.41c-2.55,3.8-3.33,8.05-3.43,12.5a7.87,7.87,0,0,1-.12,1.19,15.93,15.93,0,0,0-.44,2.62c0,1.76.09,1.76-1.51,2.22a31.62,31.62,0,0,1-1.08-3.82c-.18-1-.65-1.34-1.55-1.1a18.4,18.4,0,0,0-2.15.78c-.78.32-1.52.72-2.31,1-.22.08-.76-.06-.8-.2-.48-1.82-1.43-3.73-1.17-5.46a6.8,6.8,0,0,1,3.14-5.05c1-.58,1.94-1.3,2.94-1.91,2.4-1.45,4.71-3,6.3-5.38.73-1.11.26-4-.83-4.78a4.93,4.93,0,0,0-5.1.63c.52-.1.94-.19,1.37-.26a3.61,3.61,0,0,1,3.69,1.41c.2.26.44.76.32,1-.65,1.12-1.19,2.49-2.18,3.2a36.51,36.51,0,0,1-5.43,2.78,26.54,26.54,0,0,0-3.39,1.49c-4.37,2.9-5.42,7.27-4.85,12.11a22.46,22.46,0,0,0,1.68,5.17c.21.53.66,1.14,1.43.42a2.39,2.39,0,0,1,3.24.12.88.88,0,0,1,.22.68c-.29,1.31-.62,2.62-1,3.92a.81.81,0,0,1-.61.43c-3.12-.12-5.19,1.66-7,3.86a18.39,18.39,0,0,0-4,10c-.36,3.35,0,6.61,2.29,9.32.93,1.11,2.16,2,3.13,3,1.93,2.11,4.7,2.58,7.11,3.72.56.26,1.5-.26,2.49-.47H67.18l6.45-3.19-3.45,3.63.22.23,2.83-2.57-.38-.2,1-.72c1.28,1.85,1.61,3.79.29,5.5-.88,1.14-.94,2.34-1.35,3.51,0,.15-.1.3-.15.43a10,10,0,0,0-1-.72c-.94-.49-1.9-.87-2.85-.06s-.68,1.62-.45,2.52c.38,1.46.79,2.91,1.17,4.3-1.16-.5-1.45-.78-1.48-1.75-.05-1.85,0-3.69-.1-5.53a3.48,3.48,0,0,0-.82-1.92,1.28,1.28,0,0,0-1.87-.12,1.7,1.7,0,0,0-.61,2.12c.63-.57.11-2,1.31-1.86.82.07,1.29.81,1.33,1.76L66,103.35l-.33.14c1.23.8.78,1.59.37,2.51a6.15,6.15,0,0,0-.24,2c0,.32,0,.65.07,1.19-.29-.34-.41-.47-.52-.62-.36-.46-.72-.92-1.06-1.39-3.21-4.45-6.29-9-10.78-12.34C52.35,94,51.22,93,50.06,92a25.7,25.7,0,0,1-7.53-9.42q-1.39-3.21-2.85-6.41c-1.54-3.35-2.94-6.77-4.7-10a16.49,16.49,0,0,1-2.31-9.52,55.38,55.38,0,0,1,3.52-13.88,17.77,17.77,0,0,1,3.43-6.19c1.63-1.78,3.28-3.54,5-5.26A44.51,44.51,0,0,0,56,13.11a13.77,13.77,0,0,0,.3-1.58l-.38-.16a23.38,23.38,0,0,0-1.47,1.82c-2.2,3.28-4.37,6.57-6.56,9.86a28.24,28.24,0,0,1-10.31,9.47c-2.14,1.13-3.46.57-4.19-1.73s-1.39-4.31-2-6.49A26.27,26.27,0,0,1,30,14.37a27.16,27.16,0,0,1,3.11-10A18.67,18.67,0,0,0,34,2l-.34-.2a7.3,7.3,0,0,0-1.08,1A40.22,40.22,0,0,0,30,6.63c-2.34,4.31-4,8.81-3.41,13.83a67.9,67.9,0,0,0,1.19,6.79c.59,2.64,1.49,5.21,2,7.85.72,3.62-.23,7.14-1.21,10.59a23.12,23.12,0,0,1-2.1,5c-.7,1.23-1.7,1.16-2.72.16-.83-.82-1.67-1.63-2.56-2.39-1.88-1.6-2.81-3.51-2.15-6,.22-.81.34-1.65.56-2.46,1-3.57,1.82-7.16,1.45-10.91a6.54,6.54,0,0,0-.47-1.9c-.25-.6-.7-.53-.93,0a4.77,4.77,0,0,0-.35,1.59,25,25,0,0,1-4,12.81c-1.06,1.59-1.92,2-3.68,1.39a18.15,18.15,0,0,1-6.47-3.82c-1.93-1.81-2.63-4.25-3.38-6.66-.4-1.3-.84-2.59-1.27-3.88l-.36,0a4.82,4.82,0,0,0-.14,1c.06,1.13.11,2.26.25,3.39C1,39.2,3.66,43.89,9.51,46.69A39.38,39.38,0,0,1,25.7,60.62a109,109,0,0,1,6.64,12C34.11,76.21,35.46,80,37,83.79a11,11,0,0,1,.43,1.59c.65,2.73-.27,4.23-3.1,4.43a73.56,73.56,0,0,1-9.62.16,20.41,20.41,0,0,1-12.15-4.4,30.9,30.9,0,0,1-7.44-8.42c-.38-.67-.85-1.3-1.28-1.94l-.32.11a2.7,2.7,0,0,0,0,.89,19.67,19.67,0,0,0,1.42,4.23c1.34,2.33,3,4.5,4.48,6.71a17.28,17.28,0,0,0,5.54,5C21.18,95.86,28,96.79,35.2,96.4a16.59,16.59,0,0,1,5.63.47c6,1.85,10.68,5.77,15.18,9.93,1.29,1.19,1.11,2.45-.19,3.73a31.26,31.26,0,0,1-10,6.08,18.74,18.74,0,0,1-11.2.77,16.75,16.75,0,0,1-8.18-4.44c-.85-.79-1.84-1.42-2.77-2.13l-.37.33a11.56,11.56,0,0,0,1,1.94c4.22,5.24,9.24,9.07,16.33,9.18,4.19.07,8.14-.7,11.58-3.3a9.57,9.57,0,0,1,2.65-1.5c4.13-1.34,8-.36,11.49,1.89a5.94,5.94,0,0,1,2.71,4.53c-2.24.6-3.3,2-3.16,4.07,1.4-3.42,1.69-3.69,3.17-2.83a16.57,16.57,0,0,1-4.61,7.18c-2.16,1.87-4,1.93-6.41.44a12,12,0,0,1-4.32-4.41c-.82-1.47-1.55-3-2.36-4.46-.29-.54-.69-1-1-1.55a.74.74,0,0,0-.23.63,31.61,31.61,0,0,0,2.44,8.61c1.67,4.18,4.86,6.36,9.13,7.17,2.52.47,4.94.15,6.78-1.84a22.89,22.89,0,0,0,2.22-3.24c.4-.64.68-1.36,1-2.05a15.75,15.75,0,0,0,1.32,2.14,7.74,7.74,0,0,1,1.57,4.78c.18,3.28.85,6.19,3.43,8.42.1.09.24.24.23.34-.26,1.51.16,3.08-.59,4.58a6.07,6.07,0,0,0-.47,2.81,1.74,1.74,0,0,0,2,1.5,1.86,1.86,0,0,0,1.75-1.9,3.1,3.1,0,0,0-1.11-2.62,2.51,2.51,0,0,1-.88-2.44c.05-.71.19-1.42.3-2.25.76-.37,1.21-.17,1.61.86,0,0,12,7.71,14,7.59s5.82-2.94,6.06-3.12c-.15.24-2.65,4.12-6.38,4.12s-12.66-6.18-12.66-6.18a19,19,0,0,1,1.66,8.1c0,.33,0,.67,0,1,0,0,1.63,17.17,10.21,17.17s10.49-17.36,10.49-17.36c0-.27,0-.54,0-.81,0-1.41,0-2.85,0-4.28a3.88,3.88,0,0,1,.17-1.28c.67-1.73,1.37-3.46,2.12-5.15a3,3,0,0,1,1-1,.61.61,0,0,1,.58,0,1.22,1.22,0,0,1,0,.69c-.09.55-.22,1.1-.32,1.66-.06.35,0,.85-.17,1-1.19,1.08-1,2.42-.75,3.74a2.51,2.51,0,0,0,3.34,1.53c.26-.13.63-.49.59-.68a9.23,9.23,0,0,0-.94-3.48,4.2,4.2,0,0,1-.91-2.31c0-.5-.21-1-.27-1.5,0-.22,0-.61.12-.66,1.34-.59,1.46-1.91,1.93-3s1-2.51,1.62-3.7a21.6,21.6,0,0,0,2.42-6.77c0-.22.12-.44.23-.81l.54.89c1.69,2.66,4,4.15,7.24,3.72a18.18,18.18,0,0,0,3.37-.88,9.68,9.68,0,0,0,5.86-4.62,31.67,31.67,0,0,0,3.25-9.49,8.44,8.44,0,0,0,0-1.33l-.27-.1c-.37.56-.78,1.1-1.1,1.69-.57,1.06-1.09,2.15-1.63,3.23a13.13,13.13,0,0,1-5.42,5.72,4.32,4.32,0,0,1-4.29.3c-3-1.57-4.47-4.42-6-7.54,1.5.29,1.89,1.36,2.52,2.16a2.86,2.86,0,0,0-1.93-2.4c-.78-.21-1-.66-.87-1.37a6.57,6.57,0,0,1,1.77-3.93c2.34-2.4,5.4-3.1,8.57-3.36a8.75,8.75,0,0,1,6.46,1.93,11.37,11.37,0,0,0,2.4,1.53c9.66,4.4,19.83,1.13,26.07-8a5.35,5.35,0,0,0,.47-1.27l-.33-.3c-1.11.89-2.28,1.73-3.33,2.68a16,16,0,0,1-7.61,3.91c-8.37,1.73-15.06-1.77-21.13-7-1.43-1.23-1.33-2.72.18-4,2.81-2.32,5.7-4.58,8.67-6.68a17.4,17.4,0,0,1,12-3.47,37.86,37.86,0,0,0,11.23-.7c10.1-2.08,16.42-8.43,20.06-17.77a10.6,10.6,0,0,0,.32-2.55l-.39-.1c-.46.74-.9,1.48-1.38,2.2-3.16,4.84-7.06,8.9-12.53,11.06-4.66,1.84-9.57,1.95-14.49,1.55a17.27,17.27,0,0,1-3.45-.58A2.21,2.21,0,0,1,148,84.94,19.3,19.3,0,0,1,148.71,81.52Zm-30.53,9.85-2.2-.16C116.69,90.38,117.35,90.4,118.18,91.37Zm3.76-14.12a9.26,9.26,0,0,0-5.42-2.85c-.28,0-.5-.5-.86-.88C118.19,73.06,122.39,75.59,121.94,77.25ZM85.76,12.58c1.69-1.74,4.52-2.43,6.14-1.37-1.84-.45-3.37.33-4.87,1.2a4.47,4.47,0,0,0-2.34,4.17c0,1.62.2,3.24.29,4.66A7,7,0,0,1,85.76,12.58Zm.36,13.22a16.94,16.94,0,0,1-1.87-4.25c1.71,2.35,3.46,4.47,7,3.91C89.6,27.63,87.4,27.74,86.12,25.8ZM61.91,63.07a13,13,0,0,1-.16-12.39c.06-.12.22-.2.35-.29s0,0,0,0l.06-.05a8.67,8.67,0,0,1,4.33-3.88l-4.33,3.88a.25.25,0,0,0,0,.07l0,0A12.58,12.58,0,0,0,61,58.1c.34,1.87.84,3.65,2.61,4.7C62.84,64.05,62.48,64.13,61.91,63.07Zm5,45.83c-.06-1.05-.13-2.11-.19-3.16l.5,0c.06,1.06.12,2.11.17,3.17Zm34.39-42.09a1,1,0,0,1,.93-.18c.74.27,1.45.65,2.59,1.18-1.45,1.63-2.75,3-4,4.49-.87,1-1.62,2.16-2.28,3A11.94,11.94,0,0,1,101.35,66.81Zm-.36-4a13.37,13.37,0,0,1,8.61-4.63Zm7.6-2.28-2.72,1.26c0-.14-.09-.28-.14-.42l2.7-1.18C108.48,60.29,108.53,60.41,108.59,60.52ZM102.7,71.47c.22,3-1.58,5.19-3.34,7.55C99,74.45,99.19,74.6,102.7,71.47Zm-.3,8.29c.27,1.73.53,3.47.8,5.2C102.71,83.25,101.34,81.7,102.4,79.76Zm4.89,8.95-.42-.11V86.16l.29-.16c.27.31.79.65.76.93A7.15,7.15,0,0,1,107.29,88.71ZM107.17,85c.19-.64.36-1.23.54-1.82C108.07,84.81,108,84.91,107.17,85Zm-2-4.21a3.2,3.2,0,0,1,.58-3.67,26.94,26.94,0,0,1,2.84-2,2,2,0,0,1,.7-.14Zm4.92,6.46V85.41c.53.47,1.11.74,1.12,1s-.45.72-.71,1.09Zm.76,5.31c-.47-1.2-.45-2,.85-2.76Zm-.27-9.92.81,2.69-1.33-.17c.06-.83.11-1.63.17-2.43Zm-1.42-7.77-.18-.34c.94-1.9,1.2-2.08,2.41-1.61,0-.22-.09-.4-.18-.75l1.86.52Zm2.11-4.52a3.49,3.49,0,0,1,2.32,2l-5-.87A2.77,2.77,0,0,1,111.29,70.39Zm-1.46,1.83a7.1,7.1,0,0,1-4,3.41C106.37,73.39,108.27,71.77,109.83,72.22ZM117,66.54a11.86,11.86,0,0,1-3.36-.24c-2.69-.58-5.16-.58-7,2l-.35-.21c.09-.39,0-.89.27-1.17a7.28,7.28,0,0,1,7-3c2.23.3,4.47.46,6.72.69A4.13,4.13,0,0,1,117,66.54Zm5.58-4.2a26.21,26.21,0,0,0,.66-9.74C124.07,55.91,124.64,59.21,122.62,62.34ZM114.25,54c-.41-2-.84-4-1.2-5.75C115.1,49.54,115.71,52.41,114.25,54Zm-1.39,4a2.84,2.84,0,0,1,1.41-1.81,7.58,7.58,0,0,0,2-1.84,4.57,4.57,0,0,0-.22-6.11c-.51-.61-1.09-1.16-1.71-1.8a4.39,4.39,0,0,1,5,.6,9.77,9.77,0,0,1,3.22,6.17,20.34,20.34,0,0,1-.83,9c-.33,1-.92,1.76-2,1.73a36.23,36.23,0,0,1-5.22-.33c-3.46-.59-6.45.07-8.88,2.73a1,1,0,0,1-.84.17c-.79-.24-1.56-.57-2.54-1,1.76-1.56,3.36-3.1,5.67-3.61a12.43,12.43,0,0,0,2.68-.9A4.34,4.34,0,0,0,112.86,58.07Zm-3.43-1.16c-3.45.79-6.83,1.78-9.36,4.44-1.58,1.66-3,3.47-4.6,5.33a12,12,0,0,1,5.17-7.38A18.67,18.67,0,0,1,107,56.66c1.77-.34,3.38-.92,4.09-3.08C111.58,55.68,111.11,56.52,109.43,56.91ZM110,53.2c-.64,1.36-1.3,2.61-3,2.79,2.34-3.36,1.89-6.42-1.31-9l0-.42a7.36,7.36,0,0,1,1.62,0C109.69,47,110.85,51.3,110,53.2Zm-1.69-7.73a17.22,17.22,0,0,0-2.37-.1,20.7,20.7,0,0,0-2.59.61C105.36,44.74,106.3,44.65,108.27,45.47ZM97,32.88a16.51,16.51,0,0,0,0-2.77c.28.34.61.55.66.82a4.59,4.59,0,0,1-1.62,4.36A15.35,15.35,0,0,0,97,32.88Zm3.1,6c1.75-2.6,3.38-5.29,5.08-8a3.85,3.85,0,0,1,.47,4.77c-.61,1.06-1.26,2.37-2.25,2.89-2.72,1.42-4.14,4.34-6.9,5.61l-.57.23C97.49,42.41,98.9,40.7,100.14,38.88Zm-7-.82,0,0,.18-.26c.06.14,0,.19-.18.26-1.24,1.81-2.44,3.66-3.77,5.42a4.16,4.16,0,0,1-1.91,1.36,19.72,19.72,0,0,0-9.3,6.08s-.13,0-.3.09A9.05,9.05,0,0,1,81,45.7a47.77,47.77,0,0,1,5.84-4.24C88.86,40.2,91,39.18,93.11,38.06Zm-15.74,17A14.42,14.42,0,0,1,78,52.53c1.54-3.35,4.71-4.61,7.82-5.9a27.81,27.81,0,0,1,2.77-.85l.18.28C84.26,48.11,80.92,51.57,77.37,55.08Zm10.35,1.29c.45,3.2.88,6.31,1.35,9.75a10.3,10.3,0,0,1-3.8-7.27A1.21,1.21,0,0,1,85.7,58C86.32,57.47,87,57,87.72,56.37Zm-3.41,11.4c-.88.17-1.2-.29-1.3-1.91Zm-5.93-5.92c-.07-1-.09-2.18-.24-3.31-.3-2.33,1-3.81,2.78-5.21C80.74,57.83,80.19,59.57,78.38,61.85Zm1.84,15c-.48,1.4-.57,1.45-2.3,1.08C78.19,76.61,78.32,76.55,80.22,76.89Zm12.35-28c.12.09.24.18.35.28-.72,2.12-2.54,3.35-4,4.87l-.24-.23ZM77.1,48.11c.85-2.83,2.14-5.52,4.78-7.12a15.5,15.5,0,0,1,4.28-1.53,23.93,23.93,0,0,1,4.62-.56c-.78.42-1.55.89-2.35,1.28a32.39,32.39,0,0,0-7.87,5.33,10.58,10.58,0,0,0-3.6,6.7,16.66,16.66,0,0,1-.87,2.85l-.46-.15C76.11,52.64,76.44,50.32,77.1,48.11ZM75.82,58.43l1.5.17v4.77C75.81,62,76.28,60.1,75.82,58.43Zm.83,10.2c-.28-1.7-.53-3.26-.82-5C77.3,65.28,77.8,68,76.65,68.63ZM76.09,57.7l.45-3,.22,0v3Zm-1.84,5.7c0-.08.74.08.77.21.36,1.69.66,3.4,1,5.29a3,3,0,0,1-2.52-2.29A3.35,3.35,0,0,1,74.25,63.4Zm-.89,4.95,2.56,1.15c-.44.13-1,.49-1.26.34a8.34,8.34,0,0,1-1.44-1.41Zm-1.7-9.8c.21.87.66,1.69.81,2.57.3,1.76-1,8.18-2,10A15.26,15.26,0,0,1,71,64.75a27.06,27.06,0,0,0,.7-3.31A3.15,3.15,0,0,0,70,58.17C71.16,57.24,71.36,57.32,71.66,58.55ZM70.54,84.9l1.14,1.59H70.26V85.08Zm-1.62,9.74c0,.17,0,.35.07.52l-3.36.47c0-.11,0-.21,0-.32C66.72,95.25,67.72,94.29,68.92,94.64Zm-1.36-7.93c.14.61.29,1.37-.78,1.42-.24,0-.47.26-.69.41l1.25,0c0,.63.15,1.56-.18,1.83a5.81,5.81,0,0,0-2.47,4.3c0,.2-.36.37-.55.56-.15-.24-.43-.47-.44-.71a7.7,7.7,0,0,1,2.39-6,8.33,8.33,0,0,0-1.5,1.4,7.86,7.86,0,0,0-1.12,5.38,5.05,5.05,0,0,1-3.83-2.65A11.66,11.66,0,0,1,59,84a16,16,0,0,1,3.37-6.69A7.86,7.86,0,0,1,65,75.69c.16,1.66,1,3,.1,4.73s-.15,3.57.71,5.23a.67.67,0,0,0,.63.2C67.43,85.3,67.44,86.2,67.56,86.71Zm-9.8-.82-.21,0,1.58-5.45.31.09Zm8.21-7c-.15-1.27-.27-2.3-.41-3.43C66.6,75.92,66.78,77.46,66,78.84Zm0-8.46v4.27C65.12,74.29,65,72.11,65.93,70.38ZM54.7,86.9a18.52,18.52,0,0,1,5.47-15.23,9.84,9.84,0,0,1,3.29-1.88c1.26-.51,1.83,0,1.63,1.38a2.93,2.93,0,0,0-.09,1c.32,1.87-.38,3-2.09,3.91-6,3.27-6.67,10.29-5.49,15.32.14.59.34,1.16.59,2A9.54,9.54,0,0,1,54.7,86.9Zm3.53,5L60.76,95C59.22,94.75,59,93.29,58.23,91.9Zm6.18,6L60.59,95.7l.14-.28c1.13.21,2.41-.15,3.33.91l.09-.53c.21.1.54.15.61.31A18,18,0,0,1,65.32,98l-1-.91C64.33,97.24,64.35,97.44,64.41,97.93ZM68,90.66c.13,1,.28,2.07.38,3.11,0,.15-.2.4-.36.46-.81.29-1.63.53-2.72.87C65.72,93.05,65.83,91.24,68,90.66ZM67.46,98c-.89.4-1.43.09-1.7-.81-.11-.38-.23-.75-.35-1.17A31.94,31.94,0,0,1,69,95.56c.48,0,1,.51,1.7.94Zm4-6.23a1.44,1.44,0,0,1-1.19-1.65l2.4.6C72.16,91.12,71.73,91.79,71.44,91.73ZM70.15,88.2l3.64,1C71.85,90,70.06,89.47,70.15,88.2Zm2.39-9.88.33-.77-.61.4c-1.73-3.39-.65-6.72.07-10.26a5.66,5.66,0,0,0,2.58,3.54,2,2,0,0,0,2.15.19c.75-.4,1.28,0,1.08.77A5.09,5.09,0,0,1,77,74a10.24,10.24,0,0,1-1.34,1.2l1.47-.8C76.28,76.53,74,78.5,72.54,78.32Zm2,17.14c.22.14.83.37.83.57-.05,1.14.92,2.35-.21,3.35C75,98.11,74.76,96.83,74.54,95.46ZM69.3,109.74c-.11-.19-.23-.38-.34-.58l.25-.12c-.16-1.08-.34-2.16-.4-3.24s.52-1.59,1.57-1a3.1,3.1,0,0,1,1.51,1.63c.11.47-.51,1.27-1,1.7a6.66,6.66,0,0,1-1.68.93Zm1.47.52c-.35-.79-.39-1.35.42-1.84a13.39,13.39,0,0,0,1.41-1.1c.25,1.58.47,3,.75,4.71C72.61,110.92,71.28,111.42,70.77,110.26Zm2.81-2.44c.55.93.93,1.58,1.35,2.31C73.61,110.11,73.53,110,73.58,107.82Zm.47-4.67c.59-1.33,1.17-2.67,1.75-4C75.73,100.7,75.53,102.21,74.05,103.15ZM75.4,86c0-.12,0-.23,0-.34,1.34-.11,2.67-.24,4-.31.14,0,.29.36.5.65Zm4.5,66.52c.76.75.92,1.51.38,2.18a1.77,1.77,0,0,1-2.34.38c-.64-.52-.61-1.19.12-2.32l.19.24ZM78.45,88.22a3.4,3.4,0,0,1,.07-.34l.42,0c-.12-.18-.23-.36-.34-.54l.24-.23,1.43,1.35c-.09.14-.17.28-.25.42Zm2.61,3.17c-.17-.31-.33-.63-.51-.94s-.41-.66-.73-1.16c.4-.09.82-.31,1.13-.21s.27.6.34.93a11.11,11.11,0,0,1,.11,1.16Zm-2.21-15.5a3.92,3.92,0,0,1,0-1.18,1.41,1.41,0,0,1,.74-.68c.13,0,.45.22.62.4.67.74,1.31,1.49,2,2.27Zm6.64,2.47-.29.46-2.34-1.75C83.75,77.47,85,77.3,85.49,78.36Zm2.24,48.3c-1-.14-2.09-.3-3.15-.37s-2,0-3,0c1.74-2.07,4.33-1.08,6.59-1.68a6.64,6.64,0,0,1,.47,1.08C88.77,126.36,88.5,126.76,87.73,126.66ZM89.56,63.6l-.31,0c-.25-2.39-.52-4.78-.72-7.18a1.63,1.63,0,0,1,.41-1,6.29,6.29,0,0,1,1.35-1.28c1.88-1.23,2.48-3.26,3.33-5.14a4.75,4.75,0,0,1,1-1.43,4.21,4.21,0,0,0-.29,4.62,2.51,2.51,0,0,0,3.13,1.35A8.62,8.62,0,0,0,100.2,52a39.48,39.48,0,0,0,3.2-3.14c1.23-1.26,2.28-1.19,3.33.23,2,2.69,1.45,5.08-1.69,6.25-2.51.95-5.17,1.51-7.76,2.28S92,59.49,90.44,62C90.11,62.52,89.85,63.07,89.56,63.6Zm1.22.92a8.84,8.84,0,0,1,4.75-4.75c1.21-.55,2.5-.92,3.76-1.37a1.89,1.89,0,0,1,.11.25c-3.81,1.91-5.24,5.59-6.86,9.13C90.79,67.33,90.14,66.11,90.78,64.52Zm10,62.09c-.24,0-.7-.51-.73-.83s.24-.76.42-1.25c2.17.72,4.76-.38,6.44,1.54C104.93,126.25,102.85,126.48,100.76,126.61Zm8,25.06a1.64,1.64,0,0,1,1.7,1.69c.07,1.14-.74,1.16-1.32,1.21-1.05.08-2-.6-2-1.28A1.81,1.81,0,0,1,108.8,151.67Z"/><path d="M112.83,106.47h0l-.68-.42Z"/></g></g></svg>